<svg width="83" height="84" xmlns="http://www.w3.org/2000/svg">
    <g fill="none" fill-rule="evenodd">
        <path d="M17.955 53.709H22.6V48.78h-4.646v4.929zm1.76 10.908h8.079v-4.545h-8.079v4.545zm12.956-12.354h4.646v-7.025h-4.646v7.025zm3.206 11.217H41.4v-4.545h-5.523v4.545zm9.492-11.464h4.646v-2.732h-4.646v2.732zm2.288 10.81h4.488v-4.544h-4.488v4.545zm10.127-10.17h4.646V46.46h-4.646v6.196zm.312 10.03h6.133v-4.544h-6.133v4.545zM12.827 69h56.591V43.5h-56.59V69zm46.835-35.2h4.645v-7.076h-4.645V33.8zm-1.878-12.146h4.646v-2.285h-4.646v2.285zm-7.962 13.91h4.646v-4.57h-4.646v4.57zM35.524 24.877h12.168v-4.578H35.524v4.578zm-.386 8.962h4.646v-3.39h-4.646v3.39zm-14.685 1.197h4.646v-3.39h-4.646v3.39zm-2.875-11.254h3.99v-4.577h-3.99v4.577zM12.828 39h56.59V13.5h-56.59V39z" fill="#FFF"/>
        <path d="M79.877 70.5c-1.309 0-2.369 1.022-2.369 2.283v6.65h-7.985c-1.309 0-2.368 1.023-2.368 2.284 0 1.262 1.06 2.283 2.368 2.283h10.354c1.308 0 2.368-1.021 2.368-2.283v-8.934c0-1.26-1.06-2.283-2.368-2.283M2.368 84h10.354c1.309 0 2.369-1.021 2.369-2.283 0-1.261-1.06-2.283-2.369-2.283H4.737v-6.65c0-1.262-1.06-2.284-2.369-2.284C1.06 70.5 0 71.522 0 72.783v8.934C0 82.98 1.06 84 2.368 84m-.011-69.75c1.302 0 2.358-1.025 2.358-2.289V4.578h8.773c1.302 0 2.357-1.025 2.357-2.29C15.845 1.025 14.79 0 13.488 0H2.357C1.055 0 0 1.024 0 2.289v9.672c0 1.264 1.055 2.289 2.357 2.289m67.921-9.684h7.985v6.65c0 1.262 1.06 2.284 2.369 2.284C81.94 13.5 83 12.478 83 11.217V2.283C83 1.022 81.94 0 80.632 0H70.278c-1.309 0-2.369 1.022-2.369 2.283s1.06 2.283 2.369 2.283" fill="#3FB3F6"/>
        <path d="M12.998 38.483h56.248V12.851H12.998v25.632zm0 30.416h56.248V43.084H12.998v25.815zM10.69 73.5h60.865a2.305 2.305 0 0 0 2.308-2.3V43.083h7.628v-4.6h-7.628V10.55c0-1.27-1.033-2.3-2.308-2.3H10.69a2.304 2.304 0 0 0-2.309 2.3v27.933H.755v4.601H8.38v28.115a2.305 2.305 0 0 0 2.31 2.301z" fill="#1A1861"/>
        <path fill="#1A1861" d="M35.464 24.75h12.072v-4.5H35.464zM49.8 35.25h4.527v-4.5H49.8zm9.81-1.5h4.526v-7.5H59.61zM45.273 52.5H49.8v-3h-4.527zM47.536 63h4.528v-4.5h-4.528zM32.445 52.5h4.528V45h-4.528zM58.1 63h6.036v-4.5H58.1zm-38.482 1.5h8.3V60h-8.3zm.755-29.25H24.9V31.5h-4.527zm14.337-1.5h4.526V30H34.71zM57.345 52.5h4.528v-6h-4.528zM18.11 54h4.526v-5.25H18.11zm-.755-30.75h3.772v-4.5h-3.772zm18.109 40.5h5.281v-4.5h-5.281zM57.345 21h4.528v-2.25h-4.528z"/>
        <path fill-opacity=".235" fill="#3FB3F6" d="M8 8h67v33H8z"/>
    </g>
</svg>
